# xmcd
# Track frame offsets:
# 150
# 15712
# 31874
# 48861
# 67948
# 81185
# 94347
# 106834
# 121271
# 135633
# 154870
# 172232
# 189519
# 205531
# 222968
# 239280
# 256717
# 274979
# 290166
#
# Disc length: 4080 seconds
# Revision: 5
# Processed by: cddbd v1.5.2PL0 Copyright (c) Steve Scherf et al.
# Submitted via: VisiTrax 2.11.2.271 - For more info visit www.synapsa.com
#
DISCID=0b0fee13
DTITLE=Various Artist - Promo Only Country Radio - May 2009
DYEAR=2009
DGENRE=Country
TTITLE0=Jack Ingram - Barefoot And Crazy (Double Dog Dare Ya Mix)
TTITLE1=Toby Keith - Lost You Anyway (Album Version)
TTITLE2=Keith Urban - Kiss A Girl
TTITLE3=Brad Paisley - Then
TTITLE4=Joey and Rory - Play The Song
TTITLE5=Tracy Lawrence - Up To Him
TTITLE6=Stephen Cochran - Wal-Mart Flowers
TTITLE7=Jo De Messina - Shine
TTITLE8=Williams Riley - I'm Still Me
TTITLE9=Carrie Underwood and Randy Travis - I Told You So (New Duet Version)
TTITLE10=Billy Currington - People Are Crazy
TTITLE11=Miley Cyrus - The Climb (Guitar Intro)
TTITLE12=Bomshel - Fight Like A Girl
TTITLE13=Telluride - Pencil Marks
TTITLE14=Caitlin and Willl - Address In The Stars
TTITLE15=Marcel - Believin'
TTITLE16=Martina McBride - Ride (Live Wal-Mart Version)
TTITLE17=Matt Gary - The Days You Live For
TTITLE18=Derek Sholl - But It Was
EXTD=YEAR: 2009
EXTT0=
EXTT1=
EXTT2=
EXTT3=
EXTT4=
EXTT5=
EXTT6=
EXTT7=
EXTT8=
EXTT9=
EXTT10=
EXTT11=
EXTT12=
EXTT13=
EXTT14=
EXTT15=
EXTT16=
EXTT17=
EXTT18=
PLAYORDER=
